<svg version="1.2" xmlns="http://www.w3.org/2000/svg" viewBox="0 0 1365 2051" width="1365" height="2051">
	<style>
		.s0 { fill: #000000 } 
	</style>
	<g id="surface1">
		<path class="s0" d="m526.92 269.35v12.35h114.52v98.8h-13.92c-28.06 0-94.98 9.88-138.77 20.65-160.55 38.85-303.13 139.45-389.36 274.18-46.47 72.97-75 152.01-89.13 247.44-4.72 30.76-4.05 108.22 1.12 141.46 4.71 31.44 20.43 93.18 30.09 119.01 43.33 116.54 123.94 218.25 230.6 291.22 97 66.24 221.4 108.91 339.5 116.1 15.05 0.9 28.07 2.02 28.53 2.69 0.9 0.9 2.46 139.44 1.56 147.3-0.22 2.24-63.54 2.92-308.96 2.92h-308.75v31.44h1306.84v-31.44h-308.53c-303.35 0-308.74 0-310.09-4.27-0.68-2.47-0.9-22.45-0.22-44.45 0.67-22.01 1.12-53.67 1.12-70.73l0.22-30.55 19.77-1.34c53.89-3.59 94.75-10.55 149.76-25.15 110.71-29.65 207.71-83.98 288.32-161.67 94.08-90.49 150.44-196.25 173.12-324.24 6.29-35.48 8.76-114.29 4.49-150.22-11.23-98.34-45.59-191.98-99.24-270.8-28.75-41.98-79.95-96.99-119.69-128.89-9.88-7.86-21.55-17.06-26.04-20.65-9.66-7.86-30.54-21.55-54.79-35.93-72.54-42.88-156.74-72.97-238.02-85.32-35.25-5.39-66.46-8.76-81.06-8.76-10.78 0-16.39-0.9-17.06-2.93-0.68-1.34-0.68-22.45-0.46-46.47 0.46-24.02 0.9-45.13 0.9-46.93 0-2.69 9.21-2.91 57.26-2.03l57.26 1.13v-26.27h-300.89zm115.2 146.4c2.01 20.88 2.01 827.21 0.22 1008.43l-1.58 146.84-18.18-1.57c-164.14-13.03-328.28-110.47-426.18-252.61-75.67-110.03-110.02-232.85-102.62-366 2.25-43.11 6.74-68.71 19.31-114.52 22.45-81.74 55.25-146.85 107.11-212.19 82.86-104.19 191.99-175.59 317.95-207.7 18.19-4.72 66.46-12.13 99.02-15.28 2.93-0.44 4.05 2.48 4.95 14.6zm109.35-11.45c76.12 9.2 154.93 35.48 217.36 71.85 128.21 75 223.42 191.54 270.57 330.98 17.06 50.52 25.82 102.39 27.61 163.91 3.15 99.25-17.28 189.74-63.09 279.56-29.41 57.48-64.9 105.98-112.27 152.69-34.81 34.58-65.8 58.16-123.28 93.86-24.24 15.04-84.2 40.19-120.35 50.75-40.64 11.67-99.92 22.45-123.94 22.67h-10.79l-0.22-81.51c-0.22-157.85-0.22-1069.49 0-1078.93 0.22-11.22-1.8-10.99 38.4-5.83z"/>
	</g>
</svg>